HIERARCHY
ROOT Hips
{
	OFFSET -3.958830 18.904000 13.208200
	CHANNELS 6 Xposition Yposition Zposition Zrotation Yrotation Xrotation 
	JOINT LHipJoint
	{
		OFFSET 0.000000 0.000000 0.000000
		CHANNELS 3 Zrotation Yrotation Xrotation
		JOINT LeftUpLeg
		{
			OFFSET 1.800000 -1.400000 0.085000
			CHANNELS 3 Zrotation Yrotation Xrotation
			JOINT LeftLeg
			{
				OFFSET 2.215000 -6.000000 0.000000
				CHANNELS 3 Zrotation Yrotation Xrotation
				JOINT LeftFoot
				{
					OFFSET 2.500000 -6.900000 0.000000
					CHANNELS 3 Zrotation Yrotation Xrotation
					JOINT LeftToeBase
					{
						OFFSET 0.200000 -0.500000 1.950000
						CHANNELS 3 Zrotation Yrotation Xrotation
						End Site
						{
							OFFSET 0.000000 0.000000 0.000000
						}
					}
				}
			}
		}
	}
	JOINT RHipJoint
	{
		OFFSET 0.000000 0.000000 0.000000
		CHANNELS 3 Zrotation Yrotation Xrotation
		JOINT RightUpLeg
		{
			OFFSET -1.800000 -1.400000 0.085000
			CHANNELS 3 Zrotation Yrotation Xrotation
			JOINT RightLeg
			{
				OFFSET -2.215000 -6.000000 0.000000
				CHANNELS 3 Zrotation Yrotation Xrotation
				JOINT RightFoot
				{
					OFFSET -2.500000 -6.900000 0.000000
					CHANNELS 3 Zrotation Yrotation Xrotation
					JOINT RightToeBase
					{
						OFFSET -0.200000 -0.500000 1.950000
						CHANNELS 3 Zrotation Yrotation Xrotation
						End Site
						{
							OFFSET 0.000000 0.000000 0.000000
						}
					}
				}
			}
		}
	}
	JOINT LowerBack
	{
		OFFSET 0.000000 0.000000 0.000000
		CHANNELS 3 Zrotation Yrotation Xrotation
		JOINT Spine
		{
			OFFSET -0.087000 1.940000 -0.288900
			CHANNELS 3 Zrotation Yrotation Xrotation
			JOINT Spine1
			{
				OFFSET 0.000000 1.950000 0.060000
				CHANNELS 3 Zrotation Yrotation Xrotation
				JOINT Neck
				{
					OFFSET 0.000000 0.000000 0.000000
					CHANNELS 3 Zrotation Yrotation Xrotation
					JOINT Neck1
					{
						OFFSET 0.000000 1.600000 0.340000
						CHANNELS 3 Zrotation Yrotation Xrotation
						JOINT Head
						{
							OFFSET 0.000000 1.667000 -0.240000
							CHANNELS 3 Zrotation Yrotation Xrotation
							End Site
							{
								OFFSET 0.000000 0.000000 0.000000
							}
						}
					}
				}
				JOINT LeftShoulder
				{
					OFFSET 0.000000 0.000000 0.000000
					CHANNELS 3 Zrotation Yrotation Xrotation
					JOINT LeftArm
					{
						OFFSET 2.700000 1.550000 -0.730000
						CHANNELS 3 Zrotation Yrotation Xrotation
						JOINT LeftForeArm
						{
							OFFSET 5.450000 0.000000 0.000000
							CHANNELS 3 Zrotation Yrotation Xrotation
							JOINT LeftHand
							{
								OFFSET 3.450000 0.000000 0.000000
								CHANNELS 3 Zrotation Yrotation Xrotation
								JOINT LeftHandIndex1
								{
									OFFSET 0.750000 0.000000 0.000000
									CHANNELS 3 Zrotation Yrotation Xrotation
									End Site
									{
										OFFSET 0.000000 0.000000 0.000000
									}
								}
							}
						}
					}
				}
				JOINT RightShoulder
				{
					OFFSET 0.000000 0.000000 0.000000
					CHANNELS 3 Zrotation Yrotation Xrotation
					JOINT RightArm
					{
						OFFSET -2.700000 1.550000 -0.730000
						CHANNELS 3 Zrotation Yrotation Xrotation
						JOINT RightForeArm
						{
							OFFSET -5.450000 0.000000 0.000000
							CHANNELS 3 Zrotation Yrotation Xrotation
							JOINT RightHand
							{
								OFFSET -3.450000 0.000000 0.000000
								CHANNELS 3 Zrotation Yrotation Xrotation
								JOINT RightHandIndex1
								{
									OFFSET -0.750000 0.000000 0.000000
									CHANNELS 3 Zrotation Yrotation Xrotation
									End Site
									{
										OFFSET 0.000000 0.000000 0.000000
									}
								}
							}
						}
					}
				}
			}
		}
	}
}
MOTION
Frames: 6
Frame Time: 0.016667
0.164250 16.690240 0.199280 5.542557 15.501210 -5.241102 -14.651383 13.326983 3.023580 16.378944 -1.303012 -12.545723 -7.362822 5.630461 9.085048 0.053499 4.160562 3.197845 -0.035490 -0.062950 -0.359750 18.474924 -12.599486 1.460563 -21.128753 -2.690844 -9.871738 -10.795472 -3.274294 22.582742 0.019918 -4.499865 2.836838 0.071720 0.420320 -0.036640 -5.081597 0.158249 -7.115012 24.296090 -5.823481 14.056099 -29.403185 0.644410 1.836284 13.443712 -16.511101 -9.342975 -32.437982 1.659319 28.137934 -0.413180 -13.543390 1.836260 -15.005871 6.879906 1.106567 -59.214748 -7.043605 -7.757622 55.968698 -73.519403 -41.426920 -3.279642 2.225841 -0.224150 0.152290 -0.358220 0.186280 -13.629687 7.994191 0.721873 -39.921202 -2.756636 -4.602109 -103.064071 13.400478 -12.546406 3.213821 -2.026053 -0.071470 0.186130 0.126900 0.218860 
0.138900 16.709450 0.154840 4.515010 13.321907 -8.075199 -14.645448 13.396599 2.951477 18.322757 -0.997490 -10.702798 -7.357498 6.180064 10.688545 0.036954 4.545710 3.044091 0.042270 0.031750 -0.292930 18.490292 -12.612898 1.420110 -20.294289 -3.134724 -9.037523 -11.194529 -3.213466 22.850040 -0.027165 -4.565280 2.802721 0.151260 0.396320 -0.022360 -5.027333 0.096993 -7.052343 23.924303 -7.038360 16.011219 -27.963363 0.712060 5.707625 12.963179 -15.626709 -9.091427 -30.607863 1.043877 27.937222 -0.595330 -13.154260 -0.106480 -14.098660 4.294080 2.133572 -56.304450 -12.463223 1.213322 91.851404 -68.135246 -67.730577 -3.458407 1.061495 -0.212040 0.158950 -0.335320 0.186100 -13.305627 8.300589 0.181976 -38.241973 -2.351779 -5.575801 -97.202345 15.421935 -14.104631 3.106775 -2.113253 -0.070720 0.203730 0.104230 0.195170 
0.123640 16.723820 0.121450 4.026942 10.994390 -9.711555 -14.609027 13.398455 2.807382 19.235362 -0.818406 -9.707812 -6.677340 6.492773 12.582377 0.003548 4.715611 2.965398 0.111750 0.114270 -0.203580 18.534843 -12.692958 1.444464 -19.980999 -3.196755 -8.551698 -11.478317 -3.098951 22.605659 -0.069842 -4.584774 2.784712 0.208970 0.345260 -0.013860 -5.052709 0.286790 -6.988988 23.373427 -7.422496 16.474669 -27.410104 1.310617 9.939981 12.567194 -13.928050 -9.247212 -26.970672 -0.218321 28.791677 -1.338090 -12.230580 -1.499650 -12.403977 1.366331 3.692396 -49.357665 -16.328867 7.582183 114.733513 -63.286268 -94.405447 -3.986325 2.422974 -0.192860 0.158100 -0.297960 0.175810 -13.724142 8.790800 0.207137 -35.350542 -2.346094 -6.656147 -89.391839 17.163658 -14.503084 3.058193 -2.192594 -0.065090 0.203440 0.066010 0.158320 
0.106480 16.743370 0.107850 4.168644 9.264645 -10.409295 -14.609460 13.446915 2.696598 19.282896 -0.696051 -9.306392 -6.179461 6.745311 14.381435 -0.049414 4.817052 2.895566 0.203800 0.221710 -0.091000 18.542974 -12.726988 1.438946 -20.210618 -3.164856 -8.757187 -11.566511 -3.064903 23.075080 -0.118671 -4.607090 2.742216 0.278810 0.277000 0.002810 -5.001339 0.274087 -6.933223 21.457508 -7.677074 16.258611 -26.247370 1.324249 13.067036 11.343885 -11.953510 -9.049533 -23.184818 -0.816193 29.956117 -1.820030 -10.558120 -3.594930 -9.610772 -1.151271 4.785771 -40.537392 -18.617755 9.380233 134.143815 -60.653491 -117.497605 -3.933233 3.263352 -0.157750 0.146600 -0.239720 0.162320 -13.709156 8.799348 0.064890 -32.957396 -0.839220 -7.099582 -87.209332 21.339679 -17.797511 2.925078 -2.214593 -0.052200 0.200100 0.021320 0.113900 
0.106130 16.766600 0.100920 3.672805 7.413997 -11.416769 -14.650463 13.626580 2.625487 19.663971 -0.453425 -8.545715 -5.169302 6.836000 15.587809 -0.085387 4.918024 2.836096 0.270050 0.304820 -0.029500 18.498507 -12.666666 1.433314 -20.082414 -3.123568 -8.401572 -11.199151 -3.107983 23.500646 -0.151906 -4.618690 2.720669 0.334830 0.238330 0.015200 -4.824098 -0.100410 -6.898589 19.879835 -7.750158 16.935566 -23.303697 0.909253 14.493246 9.520766 -10.784641 -8.579558 -21.382919 -1.416491 30.687108 -1.668280 -10.180470 -5.587440 -5.728108 -1.541820 4.770625 -33.838291 -20.686407 11.176222 144.109166 -58.848683 -128.278417 -3.875242 3.430676 -0.133400 0.136770 -0.200990 0.156790 -13.829443 7.797996 -0.264176 -30.385627 -0.229807 -6.070585 -93.126427 30.262011 -27.794923 2.683965 -2.155951 -0.041060 0.208390 -0.001110 0.093420 
0.112580 16.765810 0.096790 3.322216 5.763908 -12.586122 -14.726214 13.834367 2.583490 20.081229 -0.143625 -7.652781 -4.479802 7.068797 16.867093 -0.095653 5.121656 2.759909 0.301870 0.351390 -0.005000 18.415823 -12.552870 1.432253 -20.467836 -3.095868 -7.610002 -10.567808 -3.228172 23.365420 -0.158430 -4.656559 2.700392 0.379890 0.245590 0.031640 -4.552806 -0.620546 -6.910527 17.540835 -7.541615 18.108662 -19.889461 0.426164 15.496360 7.662057 -9.401116 -8.032056 -18.927605 -2.167216 30.813181 -1.645780 -9.721520 -6.309020 -0.910665 -0.573149 4.100849 -26.200457 -23.304438 12.780576 148.218339 -54.923802 -128.392824 -3.914197 3.442963 -0.145810 0.164680 -0.201720 0.155990 -14.877322 5.738179 -0.297605 -26.739496 0.985828 -4.114316 -102.830828 39.564454 -43.517854 2.428164 -2.044756 -0.041940 0.215570 -0.005120 0.084640 
